<svg xmlns="http://www.w3.org/2000/svg" width="500" height="500"><path d="M122.46 345.03c-.94-18.66-1.95-41.21-1.7-59.37h-.75c-3.2 18.16-7.6 38.01-11.56 53.97l-17.21 67.16H73.33l-16.15-65.53c-4.4-16.71-8.8-37.26-11.75-55.66h-.75c-.25 18.66-1.26 40.46-2.26 60.06l-3.02 63.01H16.6l11.18-165.3h27.71l15.89 66.97c5.15 21.36 9.3 38.76 12.44 57.42h.5c2.95-18.66 6.66-35.81 11.56-57.36l15.52-66.91h28.21l9.68 165.3h-23.81l-3.14-63.77h.13Zm77.84-101.47-.12 165.3h-26.26l.12-165.3h26.26zm29.16 0 26.26.07-.13 143.18 44.17.06-.06 22.05-70.37-.06.13-165.3zm154.67 90.16-39.2-.06-.06 52.52h44.6v22.8l-70.86-.06.12-165.23h67.92v22.8h-41.72v45.36h39.2v21.87zm23 47.31c6.16 3.71 16.9 6.66 25.51 6.66 16.21 0 25-9.3 25-23.06s-8.1-20.86-21.55-30.16c-18.41-11.81-31.1-28.21-31.1-46.11 0-25.76 17.47-46.11 48.31-46.05 10.55 0 20.1 3.2 24.5 5.91l-4.65 22.55c-4.65-2.95-11.5-5.65-20.36-5.65-14.95 0-22.05 10.05-22.05 20.1 0 12.75 6.6 18.66 23.5 29.47 20.86 13.76 29.15 29.72 29.15 47.37 0 29.65-21.11 48.56-50.83 48.5-12.25 0-24.75-3.46-29.91-6.91l4.46-22.55v-.06Z" fill="#606060"/><path d="M54.86 62.64h-.56L24.2 76.97l-6.72-32.23L59.2 24.51h37.13l-.13 173.33-41.46-.06.12-135.14zm120.75 48.63c-.57 39.96 3.46 53.59 13.26 53.59 8.42 0 11.12-14.64 11.12-53.59 0-35.75-2.14-53.59-11.06-53.59s-13.57 14.14-13.32 53.59Zm66.34-1.01c0 61.88-24.19 89.84-53.97 89.84-43.1 0-54.41-48.31-54.41-87.77 0-46.11 15.52-89.84 55.29-89.84 46.3 0 53.03 52.59 53.03 87.77h.06Zm53.91 1.07c-.57 40.02 3.46 53.59 13.26 53.59 8.42 0 11.12-14.64 11.12-53.59 0-35.75-2.14-53.59-11.06-53.59s-13.57 14.14-13.32 53.59Zm66.34-1.01c0 61.88-24.19 89.84-53.97 89.84-43.04 0-54.41-48.31-54.41-87.77 0-46.11 15.52-89.84 55.35-89.84 46.3 0 53.03 52.59 53.03 87.77Zm53.91 1.08c-.57 40.02 3.46 53.59 13.26 53.59 8.42 0 11.12-14.64 11.12-53.59 0-35.75-2.14-53.59-11.06-53.59s-13.57 14.14-13.32 53.59Zm66.34-1.01c0 61.88-24.19 89.84-53.97 89.84-43.04 0-54.41-48.31-54.34-87.77 0-46.11 15.52-89.84 55.35-89.84 46.3 0 53.03 52.59 53.03 87.77h-.06Z" fill="#be1e2d"/><path d="m29.01 467.83-1.33-5.62c-.38-1.59-.79-3.84-1.14-5.55h-.13c-.38 1.71-.86 4.06-1.24 5.58l-1.36 5.58h5.2Zm-5.77 3.05-1.74 6.35h-4.89l7.11-24.43h5.87l6.6 24.43h-4.92l-1.71-6.35h-6.31Zm57.26 3.23c.41.06.89.06 1.24.06 3.49 0 6.66-2.25 6.66-9.68 0-5.55-2.03-8.72-6.44-8.72-.51 0-1.05 0-1.46.1v18.24Zm-5.01-21c1.46-.29 3.49-.48 5.68-.48 3.68 0 6.35.7 8.25 2.03 2.6 1.78 4.22 4.98 4.22 9.87 0 5.27-1.71 8.57-4.12 10.37-2.13 1.68-5.27 2.47-9.39 2.47-1.74 0-3.52-.1-4.63-.25V453.1Zm62.37 24.11-7.2-24.43h5.55l2.67 10.95c.6 2.7 1.43 5.9 1.9 8.88h.13c.41-3.01 1.14-6.12 1.81-8.95l2.57-10.88h5.49l-7.33 24.43h-5.58Zm64.12-11.14h-7.58v7.74h8.63v3.4h-13.68v-24.46h13.11v3.39h-8.06v6.7h7.58v3.23zm40.71 11.14v-24.43h4.63l5.39 10.44c1.14 2.22 2.76 5.36 3.74 7.71h.1c-.29-3.11-.57-6.88-.57-11.26v-6.88h4.44v24.43h-4.63l-5.46-10.41c-1.17-2.25-2.6-5.17-3.52-7.77h-.1c.22 2.82.38 6.28.38 11.36v6.82h-4.41Zm62.4-20.91h-5.71v-3.55h16.53v3.55h-5.74v20.91h-5.08v-20.91zm54.73-3.55v16.09c0 3.97 1.62 5.23 3.59 5.23 2.22 0 3.68-1.24 3.68-5.23v-16.09h5.08v15.45c0 6.31-3.27 9.3-8.76 9.3-5.84 0-8.66-3.01-8.66-9.11v-15.64h5.08Zm58.38 11.32h1.33c3.05 0 4.92-1.81 4.92-4.31s-1.27-4.03-4.54-4.06c-.67 0-1.27 0-1.71.16v8.22Zm-5.01-10.95c1.74-.32 3.97-.48 6.06-.48 3.33 0 6.06.44 7.9 1.78 1.81 1.3 2.41 2.95 2.41 4.98 0 2.82-1.81 5.04-5.01 6.16v.06c2.28.6 3.39 2.25 4.06 5.14.67 2.98 1.43 5.58 1.94 6.41h-5.27c-.38-.7-1.08-3.08-1.62-5.93-.6-3.2-1.81-4.22-4.35-4.22h-1.14v10.15h-5.01V453.1l.03.03Zm69.16 12.95h-7.58v7.74h8.63v3.4h-13.71v-24.46h13.14v3.39h-8.06v6.7h7.58v3.23z"/></svg>